<svg width="20" height="20" viewBox="0 0 20 20" fill="none" xmlns="http://www.w3.org/2000/svg">
<path d="M0.769231 11.0256V12.6667C0.769231 14.9643 0.769231 16.1131 1.21638 16.9907C1.60971 17.7627 2.23732 18.3903 3.00927 18.7836C3.88686 19.2308 5.03568 19.2308 7.33333 19.2308H12.6667C14.9643 19.2308 16.1131 19.2308 16.9907 18.7836C17.7627 18.3903 18.3903 17.7627 18.7836 16.9907C19.2308 16.1131 19.2308 14.9643 19.2308 12.6667V11.0256" stroke="white" stroke-width="1.5" stroke-linecap="round"/>
<path d="M0.769231 7.17969C0.769231 5.45645 0.769231 4.59483 1.1046 3.93664C1.39959 3.35768 1.8703 2.88697 2.44926 2.59198C3.10745 2.25661 3.96907 2.25661 5.69231 2.25661H14.3077C16.0309 2.25661 16.8926 2.25661 17.5507 2.59198C18.1297 2.88697 18.6004 3.35768 18.8954 3.93664C19.2308 4.59483 19.2308 5.45645 19.2308 7.17969V7.94876H0.769231V7.17969Z" stroke="white" stroke-width="1.5"/>
<path d="M4.87179 0.769231V3.84615" stroke="white" stroke-width="1.5" stroke-linecap="round"/>
<path d="M15.1282 0.769231V3.84615" stroke="white" stroke-width="1.5" stroke-linecap="round"/>
</svg>
