<svg width="17" height="15" viewBox="0 0 17 15" fill="none" xmlns="http://www.w3.org/2000/svg">
<path d="M0.75 5.44628C0.75 4.23331 1.73331 3.25 2.94628 3.25C3.92659 3.25 4.86675 2.86057 5.55994 2.16739L6.02542 1.7019C6.63491 1.09241 7.46157 0.75 8.32352 0.75H8.78953C9.59796 0.75 10.3646 1.10909 10.8822 1.73014L11.073 1.95912C11.7546 2.77707 12.7643 3.25 13.8291 3.25C14.982 3.25 15.9167 4.18465 15.9167 5.3376V12C15.9167 13.2426 14.9093 14.25 13.6667 14.25H3C1.75736 14.25 0.75 13.2426 0.75 12V5.44628Z" stroke="white" stroke-width="1.5"/>
<circle cx="8.3335" cy="8.125" r="3" stroke="white" stroke-width="1.5"/>
<circle cx="13.7666" cy="5.40527" r="0.625" fill="white"/>
</svg>
