<svg width="15" height="15" viewBox="0 0 15 15" fill="none" xmlns="http://www.w3.org/2000/svg">
<path d="M6.04849 1.05578C6.50379 -0.35193 8.49541 -0.351927 8.95071 1.05579L9.67186 3.28546C9.87542 3.91483 10.4615 4.34124 11.123 4.34124H13.4715C14.9472 4.34124 15.5626 6.22824 14.3706 7.09826L12.4586 8.49378C11.9265 8.88214 11.7039 9.56824 11.9066 10.195L12.6341 12.4442C13.089 13.8506 11.4778 15.0169 10.2839 14.1455L8.39873 12.7695C7.86306 12.3786 7.13613 12.3786 6.60046 12.7695L4.71532 14.1455C3.52144 15.0169 1.91022 13.8506 2.36508 12.4442L3.09255 10.195C3.29527 9.56824 3.07266 8.88214 2.54057 8.49378L0.628586 7.09826C-0.56341 6.22824 0.0519922 4.34124 1.52772 4.34124H3.87622C4.5377 4.34124 5.12377 3.91483 5.32734 3.28545L6.04849 1.05578Z" fill="#FFCB49"/>
</svg>
