<svg width="15" height="16" viewBox="0 0 15 16" fill="none" xmlns="http://www.w3.org/2000/svg">
<rect x="4.91753" y="5.23954" width="1.9367" height="1.9367" rx="0.963245" fill="white"/>
<rect x="8.14451" y="8.4675" width="1.9367" height="1.9367" rx="0.963245" fill="white"/>
<path d="M9.50618 5.81533L5.49261 9.82891" stroke="white" stroke-width="1.5" stroke-linecap="round"/>
<path d="M7.09112 1.09382C7.17512 0.640692 7.82439 0.640694 7.90839 1.09382C8.1865 2.59406 10.0169 3.18881 11.1238 2.13856C11.4581 1.82134 11.9833 2.20298 11.7849 2.61894C11.1281 3.99612 12.2594 5.5532 13.7722 5.35409C14.2291 5.29396 14.4297 5.91146 14.0247 6.13137C12.6838 6.85946 12.6838 8.78411 14.0247 9.5122C14.4297 9.73212 14.2291 10.3496 13.7722 10.2895C12.2594 10.0904 11.1281 11.6474 11.7849 13.0246C11.9833 13.4406 11.4581 13.8222 11.1238 13.505C10.017 12.4548 8.1865 13.0495 7.90839 14.5497C7.8244 15.0029 7.17512 15.0029 7.09112 14.5497C6.81301 13.0495 4.98256 12.4548 3.87575 13.505C3.54145 13.8222 3.01618 13.4406 3.21457 13.0246C3.87139 11.6474 2.74011 10.0904 1.22736 10.2895C0.770448 10.3496 0.569815 9.73212 0.974808 9.5122C2.31568 8.78411 2.31568 6.85946 0.974808 6.13137C0.569812 5.91146 0.77045 5.29396 1.22736 5.35409C2.74011 5.5532 3.87139 3.99613 3.21457 2.61894C3.01618 2.20298 3.54145 1.82134 3.87575 2.13856C4.98257 3.18881 6.81301 2.59406 7.09112 1.09382Z" stroke="white" stroke-width="1.5"/>
</svg>
