<svg width="21" height="17" viewBox="0 0 21 17" fill="none" xmlns="http://www.w3.org/2000/svg">
<mask id="path-1-inside-1_105_2029" fill="white">
<path fill-rule="evenodd" clip-rule="evenodd" d="M10.0578 4.02276C7.42685 4.02276 5.09097 5.28342 3.61973 7.24213C2.95258 8.13034 1.69171 8.30953 0.803508 7.64238C-0.0846946 6.97522 -0.263889 5.71435 0.403265 4.82615C2.60161 1.89943 6.10816 0 10.0578 0C14.0074 0 17.5139 1.89943 19.7123 4.82615C20.3794 5.71436 20.2002 6.97522 19.312 7.64238C18.4238 8.30953 17.1629 8.13034 16.4958 7.24213C15.0245 5.28342 12.6887 4.02276 10.0578 4.02276ZM10.057 10.0569C9.07147 10.0569 8.19634 10.5275 7.64255 11.2648C6.97543 12.1531 5.71457 12.3323 4.82634 11.6652C3.93811 10.9981 3.75886 9.73722 4.42597 8.84899C5.70681 7.14362 7.75262 6.03414 10.057 6.03414C12.3614 6.03414 14.4072 7.14362 15.6881 8.84899C16.3552 9.73722 16.1759 10.9981 15.2877 11.6652C14.3995 12.3323 13.1386 12.1531 12.4715 11.2648C11.9177 10.5275 11.0426 10.0569 10.057 10.0569ZM10.057 12.0683C8.69518 12.0683 7.59119 13.1723 7.59119 14.5341C7.59119 15.896 8.69518 17 10.057 17C11.4189 17 12.5229 15.896 12.5229 14.5341C12.5229 13.1723 11.4189 12.0683 10.057 12.0683Z"/>
</mask>
<path d="M3.61973 7.24213L4.82591 8.14813L4.82591 8.14813L3.61973 7.24213ZM0.803508 7.64238L-0.102485 8.84855L-0.102485 8.84855L0.803508 7.64238ZM0.403265 4.82615L-0.802909 3.92016H-0.802909L0.403265 4.82615ZM19.7123 4.82615L18.5061 5.73215V5.73215L19.7123 4.82615ZM19.312 7.64238L20.218 8.84855L19.312 7.64238ZM16.4958 7.24213L17.702 6.33614L17.702 6.33614L16.4958 7.24213ZM7.64255 11.2648L6.43633 10.3589H6.43633L7.64255 11.2648ZM4.82634 11.6652L3.9204 12.8714L3.9204 12.8714L4.82634 11.6652ZM4.42597 8.84899L3.21976 7.94305L3.21976 7.94305L4.42597 8.84899ZM15.6881 8.84899L14.4819 9.75493L15.6881 8.84899ZM15.2877 11.6652L16.1936 12.8714L16.1936 12.8714L15.2877 11.6652ZM12.4715 11.2648L13.6777 10.3589L13.6777 10.3589L12.4715 11.2648ZM4.82591 8.14813C6.02422 6.55278 7.92093 5.5313 10.0578 5.5313V2.51423C6.93278 2.51423 4.15773 4.01407 2.41356 6.33614L4.82591 8.14813ZM-0.102485 8.84855C1.45187 10.0161 3.65838 9.70248 4.82591 8.14813L2.41356 6.33614C2.24677 6.55819 1.93155 6.60299 1.7095 6.4362L-0.102485 8.84855ZM-0.802909 3.92016C-1.97043 5.47451 -1.65684 7.68103 -0.102485 8.84855L1.7095 6.4362C1.48745 6.26941 1.44265 5.9542 1.60944 5.73215L-0.802909 3.92016ZM10.0578 -1.50854C5.61336 -1.50854 1.66792 0.630675 -0.802909 3.92016L1.60944 5.73215C3.5353 3.16819 6.60296 1.50854 10.0578 1.50854V-1.50854ZM20.9184 3.92016C18.4476 0.630674 14.5022 -1.50854 10.0578 -1.50854V1.50854C13.5126 1.50854 16.5802 3.16819 18.5061 5.73215L20.9184 3.92016ZM20.218 8.84855C21.7724 7.68103 22.0859 5.47451 20.9184 3.92016L18.5061 5.73215C18.6729 5.9542 18.6281 6.26941 18.406 6.4362L20.218 8.84855ZM15.2896 8.14813C16.4571 9.70248 18.6636 10.0161 20.218 8.84855L18.406 6.4362C18.184 6.60299 17.8688 6.55819 17.702 6.33614L15.2896 8.14813ZM10.0578 5.5313C12.1946 5.5313 14.0913 6.55278 15.2896 8.14813L17.702 6.33614C15.9578 4.01407 13.1827 2.51423 10.0578 2.51423V5.5313ZM8.84876 12.1708C9.12919 11.7974 9.56488 11.5654 10.057 11.5654V8.54837C8.57807 8.54837 7.26349 9.25757 6.43633 10.3589L8.84876 12.1708ZM3.9204 12.8714C5.47481 14.0389 7.68131 13.7252 8.84876 12.1708L6.43633 10.3589C6.26955 10.5809 5.95434 10.6258 5.73228 10.459L3.9204 12.8714ZM3.21976 7.94305C2.05231 9.49745 2.366 11.704 3.9204 12.8714L5.73228 10.459C5.51022 10.2922 5.46541 9.97698 5.63219 9.75492L3.21976 7.94305ZM10.057 4.52561C7.25756 4.52561 4.77292 5.87508 3.21976 7.94305L5.63219 9.75493C6.64069 8.41215 8.24769 7.54268 10.057 7.54268V4.52561ZM16.8943 7.94305C15.3411 5.87508 12.8565 4.52561 10.057 4.52561V7.54268C11.8664 7.54268 13.4734 8.41215 14.4819 9.75493L16.8943 7.94305ZM16.1936 12.8714C17.748 11.704 18.0617 9.49745 16.8943 7.94305L14.4819 9.75493C14.6486 9.97698 14.6038 10.2922 14.3818 10.459L16.1936 12.8714ZM11.2653 12.1708C12.4327 13.7252 14.6392 14.0389 16.1936 12.8714L14.3818 10.459C14.1597 10.6258 13.8445 10.5809 13.6777 10.3589L11.2653 12.1708ZM10.057 11.5654C10.5492 11.5654 10.9849 11.7974 11.2653 12.1708L13.6777 10.3589C12.8506 9.25757 11.536 8.54837 10.057 8.54837V11.5654ZM9.09972 14.5341C9.09972 14.0054 9.52832 13.5768 10.057 13.5768V10.5598C7.86204 10.5598 6.08265 12.3391 6.08265 14.5341H9.09972ZM10.057 15.4914C9.52832 15.4914 9.09972 15.0628 9.09972 14.5341H6.08265C6.08265 16.7291 7.86204 18.5085 10.057 18.5085V15.4914ZM11.0143 14.5341C11.0143 15.0628 10.5857 15.4914 10.057 15.4914V18.5085C12.252 18.5085 14.0314 16.7291 14.0314 14.5341H11.0143ZM10.057 13.5768C10.5857 13.5768 11.0143 14.0054 11.0143 14.5341H14.0314C14.0314 12.3391 12.252 10.5598 10.057 10.5598V13.5768Z" fill="white" mask="url(#path-1-inside-1_105_2029)"/>
</svg>
