<svg width="98" height="98" viewBox="0 0 98 98" fill="none" xmlns="http://www.w3.org/2000/svg">
<circle cx="49" cy="49" r="49" fill="#FCBF28"/>
<path d="M49 98C76.062 98 98 76.062 98 49C98 21.938 76.062 0 49 0V98Z" fill="#FFAD09"/>
<path d="M64.4639 53.5113V57.1961V61.8117C64.4639 65.012 61.8695 67.6063 58.6693 67.6063H35.7269C32.5266 67.6063 29.9323 65.012 29.9323 61.8117V31.7599C29.9323 28.5597 32.5266 25.9653 35.7269 25.9653H58.6693C61.8695 25.9653 64.4639 28.5597 64.4639 31.7599V36.3756V40.0604" stroke="white" stroke-width="3.86307" stroke-linecap="round"/>
<path d="M50.9191 27.8969H48.9876V24.0338H50.9191V27.8969ZM50.9191 69.5379H48.9876V65.6748H50.9191V69.5379ZM62.5323 53.5113C62.5323 52.4446 63.3971 51.5798 64.4639 51.5798C65.5306 51.5798 66.3954 52.4446 66.3954 53.5113H62.5323ZM66.3954 40.0604C66.3954 41.1271 65.5306 41.9919 64.4639 41.9919C63.3971 41.9919 62.5323 41.1271 62.5323 40.0604H66.3954ZM58.6693 27.8969H50.9191V24.0338H58.6693V27.8969ZM50.9191 65.6748H58.6693V69.5379H50.9191V65.6748ZM62.5323 36.3756V31.7599H66.3954V36.3756H62.5323ZM62.5323 61.8117V57.1961H66.3954V61.8117H62.5323ZM62.5323 57.1961V53.5113H66.3954V57.1961H62.5323ZM62.5323 40.0604V36.3756H66.3954V40.0604H62.5323ZM58.6693 65.6748C60.8028 65.6748 62.5323 63.9452 62.5323 61.8117H66.3954C66.3954 66.0788 62.9363 69.5379 58.6693 69.5379V65.6748ZM58.6693 24.0338C62.9363 24.0338 66.3954 27.4929 66.3954 31.7599H62.5323C62.5323 29.6264 60.8028 27.8969 58.6693 27.8969V24.0338Z" fill="#FFF0DE"/>
<path d="M50.7012 38.7641C50.7012 37.0027 49.9 35.3369 48.5239 34.2373L37.433 25.3746C33.6384 22.3423 28.021 25.0441 28.021 29.9014V63.5737C28.021 65.3352 28.8222 67.001 30.1983 68.1006L41.2892 76.9633C45.0838 79.9955 50.7012 77.2938 50.7012 72.4364V38.7641Z" fill="white"/>
<path d="M69.4944 39.6808L76.5988 46.7852M76.5988 46.7852L69.4944 53.8895M76.5988 46.7852H56.6523" stroke="#FFF0DE" stroke-width="3.86307" stroke-linecap="round"/>
</svg>
