<svg width="78" height="58" viewBox="0 0 78 58" fill="none" xmlns="http://www.w3.org/2000/svg">
<path d="M13.7842 47.3333H64.2152V48C64.2152 53.5228 59.7381 58 54.2152 58H23.7842C18.2613 58 13.7842 53.5228 13.7842 48V47.3333Z" fill="#FFEB7A"/>
<path d="M39 47.3333H64.2155V48C64.2155 53.5228 59.7384 58 54.2155 58H39V47.3333Z" fill="#FFCB49"/>
<path d="M5.71582 14.6667L27.065 24L39.0003 3.00004L50.9356 24L72.2848 14.6667L64.2158 47.3334H13.7848L5.71582 14.6667Z" fill="#FFCB49"/>
<path d="M64.2155 47.3334L72.2845 14.6667L50.9353 24L39 3.00004V47.3334H64.2155Z" fill="#FFAD09"/>
<ellipse cx="7.39655" cy="17" rx="7.39655" ry="7.33333" fill="#FFEB7A"/>
<ellipse cx="39.0001" cy="7.33333" rx="7.39655" ry="7.33333" fill="#FFEB7A"/>
<path d="M39 14.6667C43.085 14.6667 46.3966 11.3834 46.3966 7.33333C46.3966 3.28324 43.085 0 39 0V14.6667Z" fill="#FFCB49"/>
<ellipse cx="70.6036" cy="17" rx="7.39655" ry="7.33333" fill="#FFCB49"/>
<path d="M36.3105 37.6896C36.3105 36.2042 37.5147 35 39.0002 35C40.4857 35 41.6899 36.2042 41.6899 37.6896V47.3333H36.3105V37.6896Z" fill="#FFAD09"/>
<path d="M41.6897 47.3333V37.6896C41.6897 36.2042 40.4855 35 39 35V47.3333H41.6897Z" fill="#FF8C00"/>
<path d="M47.4053 41.3563C47.4053 39.8709 48.6095 38.6667 50.0949 38.6667C51.5804 38.6667 52.7846 39.8709 52.7846 41.3563V47.3333H47.4053V41.3563Z" fill="#FF8C00"/>
<path d="M25.2158 41.3563C25.2158 39.8709 26.42 38.6667 27.9055 38.6667C29.3909 38.6667 30.5951 39.8709 30.5951 41.3563V47.3333H25.2158V41.3563Z" fill="#FFAD09"/>
</svg>
