<svg width="184" height="184" viewBox="0 0 184 184" fill="none" xmlns="http://www.w3.org/2000/svg">
<mask id="mask0_105_2686" style="mask-type:alpha" maskUnits="userSpaceOnUse" x="0" y="0" width="184" height="184">
<circle cx="92" cy="92" r="92" fill="#C4C4C4"/>
</mask>
<g mask="url(#mask0_105_2686)">
<circle opacity="0.2" cx="92" cy="92" r="92" fill="#C4C4C4"/>
<path opacity="0.4" d="M20.5099 142.793C-12.8143 158.891 -4.45352 191.332 25.4078 211.788C48.4712 227.586 26.7821 249.632 50.7371 262.207C83.4163 279.363 75.1508 220.762 125.376 178.791C175.601 136.82 155.502 225.186 204.899 199.096C254.297 173.006 216.299 83.1927 176.039 56.1471C135.78 29.1014 105.575 73.9733 107.959 104.619C110.343 135.265 62.1652 122.669 20.5099 142.793Z" fill="#CECAFF"/>
<rect x="49.5" y="84.5317" width="100" height="103" rx="10" fill="#FCBF28"/>
<path d="M149.5 177.532V94.5317C149.5 89.0089 145.023 84.5317 139.5 84.5317H99.5V187.532H139.5C145.023 187.532 149.5 183.055 149.5 177.532Z" fill="#FF9E27"/>
<path d="M61.5 159.532H137.5" stroke="#FFAD09" stroke-width="5"/>
<path d="M61.5 145.532H137.5" stroke="#FFAD09" stroke-width="5"/>
<path d="M61.5 112.532H92.5" stroke="#FFAD09" stroke-width="15"/>
<path d="M99.5 159.532L137.5 159.532" stroke="#FF8C00" stroke-width="5"/>
<path d="M99.5 145.532L137.5 145.532" stroke="#FF8C00" stroke-width="5"/>
<g filter="url(#filter0_d_105_2686)">
<rect x="22.5" y="90.4136" width="100" height="103" rx="10" transform="rotate(-15 22.5 90.4136)" fill="#FCBF28"/>
<path d="M143.162 154.363L121.68 74.191C120.251 68.8563 114.768 65.6905 109.433 67.1199L70.7959 77.4727L97.4543 176.963L136.091 166.61C141.426 165.181 144.592 159.697 143.162 154.363Z" fill="#FF9E27"/>
<path d="M53.5029 159.752L126.913 140.082" stroke="#FFAD09" stroke-width="5"/>
<path d="M49.8789 146.229L123.289 126.559" stroke="#FFAD09" stroke-width="5"/>
<path d="M41.3379 114.354L71.2816 106.33" stroke="#FFAD09" stroke-width="15"/>
<path d="M90.208 149.917L126.913 140.082" stroke="#FF8C00" stroke-width="5"/>
<path d="M86.584 136.394L123.289 126.559" stroke="#FF8C00" stroke-width="5"/>
</g>
<rect opacity="0.12" x="33.3555" y="53.3774" width="18.7629" height="18.7629" transform="rotate(15 33.3555 53.3774)" fill="#C4C4C4"/>
<rect opacity="0.12" x="111.5" y="19.2336" width="18.7629" height="18.7629" transform="rotate(-15 111.5 19.2336)" fill="#C4C4C4"/>
<rect opacity="0.12" x="75.7188" y="95.554" width="18.7629" height="18.7629" transform="rotate(-31.5771 75.7188 95.554)" fill="#C4C4C4"/>
<rect opacity="0.12" x="20.1465" y="128.491" width="18.7629" height="18.7629" transform="rotate(-15 20.1465 128.491)" fill="#C4C4C4"/>
</g>
<defs>
<filter id="filter0_d_105_2686" x="-3.25488" y="54.7766" width="174.761" height="176.882" filterUnits="userSpaceOnUse" color-interpolation-filters="sRGB">
<feFlood flood-opacity="0" result="BackgroundImageFix"/>
<feColorMatrix in="SourceAlpha" type="matrix" values="0 0 0 0 0 0 0 0 0 0 0 0 0 0 0 0 0 0 127 0" result="hardAlpha"/>
<feOffset dy="16"/>
<feGaussianBlur stdDeviation="14"/>
<feComposite in2="hardAlpha" operator="out"/>
<feColorMatrix type="matrix" values="0 0 0 0 0.129167 0 0 0 0 0.0762368 0 0 0 0 0.0113021 0 0 0 0.47 0"/>
<feBlend mode="normal" in2="BackgroundImageFix" result="effect1_dropShadow_105_2686"/>
<feBlend mode="normal" in="SourceGraphic" in2="effect1_dropShadow_105_2686" result="shape"/>
</filter>
</defs>
</svg>
