<svg width="22" height="21" viewBox="0 0 22 21" fill="none" xmlns="http://www.w3.org/2000/svg">
<path fill-rule="evenodd" clip-rule="evenodd" d="M10.5139 1.52905H11.5176C15.177 1.52905 18.1435 4.49556 18.1435 8.15493C18.1435 11.8143 15.177 14.7808 11.5176 14.7808H10.5139C6.85452 14.7808 3.88802 11.8143 3.88802 8.15493C3.88802 4.49556 6.85452 1.52905 10.5139 1.52905ZM2.35897 8.15493C2.35897 3.65109 6.01005 0 10.5139 0H11.5176C16.0214 0 19.6725 3.65109 19.6725 8.15493C19.6725 9.53873 19.3278 10.842 18.7197 11.9836L21.3623 16.2955L22.0002 17.3364L20.7569 17.4067L18.0692 17.5586L16.5857 19.6753L15.8994 20.6545L15.2614 19.6136L13.1379 16.1489C12.6142 16.2545 12.0724 16.3099 11.5176 16.3099H10.5139C9.94929 16.3099 9.39809 16.2525 8.8658 16.1432L6.73881 19.6137L6.10087 20.6545L5.41456 19.6753L3.93102 17.5587L1.24338 17.4067L0 17.3364L0.63794 16.2955L3.29732 11.9563C2.69816 10.8213 2.35897 9.5277 2.35897 8.15493ZM14.6465 15.688C15.8711 15.1788 16.9449 14.3796 17.7822 13.3762L19.3811 15.9851L17.559 16.0882L17.1811 16.1095L16.9725 16.4071L15.9667 17.8422L14.6465 15.688ZM4.23136 13.3546L2.61911 15.9852L4.44127 16.0882L4.81915 16.1096L5.02773 16.4072L6.03353 17.8422L7.36016 15.6777C6.13705 15.1643 5.06552 14.3613 4.23136 13.3546ZM11.3048 4.91563C11.21 4.64084 10.8214 4.64084 10.7266 4.91563L10.115 6.68883C10.0724 6.81216 9.95635 6.89493 9.82589 6.89493H7.8874C7.58675 6.89493 7.46657 7.28329 7.71467 7.4531L9.25091 8.50453C9.36454 8.58231 9.41218 8.72643 9.36728 8.85661L8.77319 10.579C8.67711 10.8576 8.99184 11.0975 9.23501 10.9311L10.843 9.8306C10.9471 9.75934 11.0843 9.75934 11.1884 9.8306L12.7964 10.9311C13.0395 11.0975 13.3543 10.8576 13.2582 10.579L12.6641 8.85661C12.6192 8.72643 12.6668 8.58231 12.7805 8.50453L14.3167 7.4531C14.5648 7.28329 14.4446 6.89493 14.144 6.89493H12.2055C12.075 6.89493 11.9589 6.81216 11.9164 6.68883L11.3048 4.91563Z" fill="white"/>
</svg>
