<svg width="74" height="81" viewBox="0 0 74 81" fill="none" xmlns="http://www.w3.org/2000/svg">
<path d="M8.20163 31.7922H65.6105L65.6107 72.7669C65.6107 77.3139 61.9246 81 57.3776 81H16.4349C11.8879 81 8.20181 77.3139 8.20179 72.7669L8.20163 31.7922Z" fill="#FCBF28"/>
<path d="M36.9058 31.7922H65.6103L65.6104 72.7669C65.6104 77.3139 61.9243 81 57.3773 81H36.9059L36.9058 31.7922Z" fill="#FFAD09"/>
<path d="M24.6039 11.3206C24.6039 6.77359 28.29 3.0875 32.837 3.0875H40.9747C45.5217 3.0875 49.2078 6.77359 49.2078 11.3206V21.7869H24.6039V11.3206Z" stroke="#FFCB49" stroke-width="6.14876"/>
<path d="M36.9058 3.0875H40.9747C45.5217 3.0875 49.2078 6.77359 49.2078 11.3206V21.7869" stroke="#FFBB34" stroke-width="6.14876"/>
<path d="M0 19.5065C0 17.233 1.84304 15.3899 4.11656 15.3899H69.6951C71.9686 15.3899 73.8117 17.233 73.8117 19.5065V27.676C73.8117 29.9495 71.9686 31.7925 69.6951 31.7925H4.11656C1.84305 31.7925 0 29.9495 0 27.676V19.5065Z" fill="#FFCB49"/>
<path d="M36.9058 15.3899H69.6951C71.9686 15.3899 73.8117 17.233 73.8117 19.5065V27.676C73.8117 29.9495 71.9686 31.7925 69.6951 31.7925H36.9058V15.3899Z" fill="#FFBB34"/>
<path d="M22.5532 45.3345V67.4579" stroke="#FFAD09" stroke-width="6.14876" stroke-linecap="round"/>
<path d="M36.9058 42.044V70.7485" stroke="#FF8C00" stroke-width="6.14876" stroke-linecap="round"/>
<path d="M36.9068 73.824C35.2083 73.824 33.8313 72.4471 33.8313 70.7485V42.044C33.8313 40.3455 35.2083 38.9685 36.9068 38.9685V73.824Z" fill="#FFAD09"/>
<path d="M51.2584 45.3345V67.4579" stroke="#FF8C00" stroke-width="6.14876" stroke-linecap="round"/>
</svg>
