<svg width="15" height="14" viewBox="0 0 15 14" fill="none" xmlns="http://www.w3.org/2000/svg">
<path d="M6.54267 1.31056C6.77467 0.596519 7.78486 0.59652 8.01686 1.31056L8.67274 3.32915C8.98401 4.28714 9.87674 4.93575 10.884 4.93575H13.0065C13.7573 4.93575 14.0695 5.89649 13.4621 6.33779L11.7449 7.58534C10.93 8.17741 10.589 9.22688 10.9003 10.1849L11.5562 12.2035C11.7882 12.9175 10.9709 13.5113 10.3635 13.07L8.64642 11.8224C7.8315 11.2303 6.72803 11.2303 5.91311 11.8224L4.196 13.07C3.5886 13.5113 2.77134 12.9175 3.00335 12.2035L3.65923 10.1849C3.9705 9.22689 3.62951 8.17741 2.81459 7.58534L1.09748 6.33779C0.490079 5.89649 0.802242 4.93575 1.55303 4.93575H3.6755C4.68279 4.93575 5.57552 4.28714 5.88679 3.32915L6.54267 1.31056Z" stroke="white" stroke-width="1.5"/>
</svg>
