<svg width="11" height="11" viewBox="0 0 11 11" fill="none" xmlns="http://www.w3.org/2000/svg">
<path d="M0.312396 4.1713C-0.462769 3.30643 0.314784 1.95348 1.44794 2.19545L2.96789 2.52001C3.47472 2.62823 3.99274 2.397 4.25128 1.94714L5.02531 0.600313C5.60409 -0.406761 7.13059 -0.0788548 7.25169 1.07856L7.4129 2.61941C7.4671 3.1375 7.84799 3.56207 8.35588 3.67052L9.86794 3.9934C11.0016 4.23548 11.1675 5.79111 10.11 6.26409L8.6892 6.89958C8.21706 7.11076 7.93428 7.6028 7.9883 8.11916L8.15087 9.67302C8.27187 10.8295 6.84789 11.463 6.07235 10.5978L5.03797 9.4437C4.69054 9.05606 4.13409 8.93697 3.66036 9.14885L2.25144 9.77903C1.19313 10.2524 0.147198 9.08827 0.725973 8.0812L1.50001 6.73437C1.75855 6.28451 1.69887 5.71821 1.35216 5.33138L0.312396 4.1713Z" fill="#FFCB49"/>
</svg>
