<svg width="19" height="20" viewBox="0 0 19 20" fill="none" xmlns="http://www.w3.org/2000/svg">
<path d="M7.07318 17.0976V17.0976C7.07318 18.278 8.03006 19.2348 9.21043 19.2348H9.47348C10.6538 19.2348 11.6107 18.278 11.6107 17.0976V17.0976" stroke="white" stroke-width="1.5"/>
<path d="M3.36179 6.00443C3.75971 3.00563 6.31706 0.765207 9.34215 0.765207C12.3672 0.765207 14.9246 3.00563 15.3225 6.00443L15.9224 10.5253C16.1489 12.2325 16.8352 13.846 17.9079 15.1933C17.9143 15.2014 17.9166 15.2066 17.9174 15.2085C17.9182 15.2106 17.9186 15.2123 17.9188 15.2142C17.9192 15.2187 17.9186 15.228 17.913 15.2395C17.9075 15.2509 17.9006 15.2572 17.8969 15.2597C17.8953 15.2607 17.8937 15.2615 17.8915 15.2622C17.8895 15.2628 17.8841 15.2642 17.8737 15.2642H0.810576C0.800198 15.2642 0.794764 15.2628 0.792775 15.2622C0.790599 15.2615 0.789006 15.2607 0.787394 15.2597C0.783647 15.2572 0.776755 15.2509 0.771242 15.2395C0.765728 15.228 0.765096 15.2187 0.7655 15.2142C0.765673 15.2123 0.766058 15.2106 0.766899 15.2085C0.767668 15.2066 0.76995 15.2014 0.776415 15.1933C1.84908 13.846 2.53538 12.2325 2.76191 10.5253L3.36179 6.00443Z" stroke="white" stroke-width="1.5"/>
</svg>
