<svg width="24" height="24" viewBox="0 0 24 24" fill="none" xmlns="http://www.w3.org/2000/svg">
<g clip-path="url(#clip0_745_16)">
<mask id="path-1-inside-1_745_16" fill="white">
<path fill-rule="evenodd" clip-rule="evenodd" d="M20.8136 11.822C21.3876 11.4243 21.3876 10.5757 20.8136 10.178L12.3196 4.29315C11.6564 3.83367 10.7501 4.30833 10.7501 5.11515V7.125L9.20403 7.2796C5.11441 7.68857 2.00006 11.1299 2.00006 15.2399V21L3.5111 18.5823C5.07177 16.0853 7.8598 14.6695 10.7501 14.8351V16.8849C10.7501 17.6917 11.6564 18.1663 12.3196 17.7069L20.8136 11.822Z"/>
</mask>
<path d="M20.8136 10.178L21.6679 8.94502H21.6679L20.8136 10.178ZM20.8136 11.822L19.9594 10.589L20.8136 11.822ZM12.3196 4.29315L13.1738 3.06016L13.1738 3.06016L12.3196 4.29315ZM10.7501 7.125H12.2501V8.48248L10.8993 8.61755L10.7501 7.125ZM9.20403 7.2796L9.05477 5.78705L9.20403 7.2796ZM2.00006 21L3.27206 21.795L0.500059 26.2302V21H2.00006ZM3.5111 18.5823L2.2391 17.7873V17.7873L3.5111 18.5823ZM10.7501 14.8351L10.8358 13.3375L12.2501 13.4185V14.8351H10.7501ZM12.3196 17.7069L13.1738 18.9398L13.1738 18.9398L12.3196 17.7069ZM21.6679 8.94502C23.1029 9.93923 23.1029 12.0608 21.6679 13.055L19.9594 10.589C19.6724 10.7878 19.6724 11.2122 19.9594 11.411L21.6679 8.94502ZM13.1738 3.06016L21.6679 8.94502L19.9594 11.411L11.4653 5.52614L13.1738 3.06016ZM9.25008 5.11515C9.25008 3.09809 11.5158 1.91146 13.1738 3.06016L11.4653 5.52614C11.7969 5.75588 12.2501 5.51856 12.2501 5.11515H9.25008ZM9.25008 7.125V5.11515H12.2501V7.125H9.25008ZM9.05477 5.78705L10.6008 5.63244L10.8993 8.61755L9.35328 8.77216L9.05477 5.78705ZM0.500059 15.2399C0.500059 10.3593 4.19836 6.27269 9.05477 5.78705L9.35328 8.77216C6.03047 9.10444 3.50006 11.9005 3.50006 15.2399H0.500059ZM0.500059 21V15.2399H3.50006V21H0.500059ZM4.78309 19.3773L3.27206 21.795L0.728062 20.205L2.2391 17.7873L4.78309 19.3773ZM10.6643 16.3326C8.31633 16.1981 6.05098 17.3487 4.78309 19.3773L2.2391 17.7873C4.09257 14.8218 7.40327 13.1409 10.8358 13.3375L10.6643 16.3326ZM9.25008 16.8849V14.8351H12.2501V16.8849H9.25008ZM13.1738 18.9398C11.5158 20.0885 9.25008 18.9019 9.25008 16.8849H12.2501C12.2501 16.4814 11.7969 16.2441 11.4653 16.4739L13.1738 18.9398ZM21.6679 13.055L13.1738 18.9398L11.4653 16.4739L19.9594 10.589L21.6679 13.055Z" fill="white" mask="url(#path-1-inside-1_745_16)"/>
</g>
<defs>
<clipPath id="clip0_745_16">
<rect width="24" height="24" fill="white" transform="matrix(-1 0 0 1 24 0)"/>
</clipPath>
</defs>
</svg>
