<svg width="184" height="184" viewBox="0 0 184 184" fill="none" xmlns="http://www.w3.org/2000/svg">
<mask id="mask0_118_6474" style="mask-type:alpha" maskUnits="userSpaceOnUse" x="0" y="0" width="184" height="184">
<circle cx="92" cy="92" r="92" fill="#C4C4C4"/>
</mask>
<g mask="url(#mask0_118_6474)">
<circle opacity="0.2" cx="92" cy="92" r="92" fill="#C4C4C4"/>
<path opacity="0.4" d="M20.5099 142.793C-12.8143 158.892 -4.45352 191.332 25.4078 211.788C48.4712 227.587 26.7821 249.632 50.7371 262.208C83.4163 279.363 75.1508 220.762 125.376 178.791C175.601 136.82 155.502 225.186 204.899 199.096C254.297 173.006 216.299 83.193 176.039 56.1473C135.78 29.1017 105.575 73.9735 107.959 104.619C110.343 135.265 62.1652 122.669 20.5099 142.793Z" fill="#CECAFF"/>
<rect opacity="0.12" x="33.3555" y="53.3774" width="18.7629" height="18.7629" transform="rotate(15 33.3555 53.3774)" fill="#C4C4C4"/>
<rect opacity="0.12" x="111.5" y="19.2334" width="18.7629" height="18.7629" transform="rotate(-15 111.5 19.2334)" fill="#C4C4C4"/>
<rect opacity="0.12" x="75.7188" y="95.5537" width="18.7629" height="18.7629" transform="rotate(-31.5771 75.7188 95.5537)" fill="#C4C4C4"/>
<rect opacity="0.12" x="20.1465" y="128.491" width="18.7629" height="18.7629" transform="rotate(-15 20.1465 128.491)" fill="#C4C4C4"/>
</g>
<path d="M33.0898 65.6316C33.0898 60.0841 37.587 55.5869 43.1345 55.5869C48.682 55.5869 53.1791 60.0841 53.1791 65.6316V92.3591H35.4445C34.1441 92.3591 33.0898 91.3049 33.0898 90.0044V65.6316Z" fill="url(#paint0_linear_118_6474)"/>
<path d="M43.0195 55.5869H113.993C122.121 55.5869 128.71 62.1759 128.71 70.3038V166.351C128.71 168.66 126.173 170.07 124.212 168.85L120.805 166.73C119.853 166.138 118.647 166.138 117.695 166.73L111.345 170.682C110.392 171.274 109.187 171.274 108.234 170.682L101.884 166.73C100.932 166.138 99.7261 166.138 98.774 166.73L92.4237 170.682C91.4716 171.274 90.2657 171.274 89.3136 170.682L82.9633 166.73C82.0112 166.138 80.8053 166.138 79.8532 166.73L73.5029 170.682C72.5508 171.274 71.3449 171.274 70.3928 170.682L64.0425 166.73C63.0904 166.138 61.8844 166.138 60.9324 166.73L57.5254 168.85C55.5648 170.07 53.027 168.66 53.027 166.351V67.2273C53.027 61.4069 48.774 56.46 43.0195 55.5869Z" fill="#FCBF28"/>
<path d="M128.71 166.351V70.3038C128.71 62.1759 122.121 55.5869 113.993 55.5869H84.9814C88.5025 56.7918 90.8682 60.1017 90.8682 63.8231V167.954C90.8682 169.564 92.6384 170.548 94.006 169.697L98.7736 166.73C99.7256 166.138 100.932 166.138 101.884 166.73L108.234 170.682C109.186 171.274 110.392 171.274 111.344 170.682L117.694 166.73C118.646 166.138 119.852 166.138 120.804 166.73L124.211 168.85C126.172 170.07 128.71 168.66 128.71 166.351Z" fill="#FFAD09"/>
<circle opacity="0.1" cx="119.013" cy="117.837" r="29.4577" fill="black"/>
<circle cx="121.192" cy="113.663" r="29.4577" fill="#FF8C00"/>
<path d="M120.033 95.6895V117.153H135.541" stroke="white" stroke-width="4.12072" stroke-linecap="round"/>
<defs>
<linearGradient id="paint0_linear_118_6474" x1="62.0735" y1="55.5869" x2="35.8008" y2="88.8635" gradientUnits="userSpaceOnUse">
<stop stop-color="#D2780B"/>
<stop offset="1" stop-color="#FF8C00"/>
</linearGradient>
</defs>
</svg>
