<svg width="15" height="15" viewBox="0 0 15 15" fill="none" xmlns="http://www.w3.org/2000/svg">
<path d="M0.75 6V7.85C0.75 10.0902 0.75 11.2103 1.18597 12.066C1.56947 12.8186 2.18139 13.4305 2.93404 13.814C3.78968 14.25 4.90979 14.25 7.15 14.25H7.85C10.0902 14.25 11.2103 14.25 12.066 13.814C12.8186 13.4305 13.4305 12.8186 13.814 12.066C14.25 11.2103 14.25 10.0902 14.25 7.85V6" stroke="white" stroke-width="1.5" stroke-linecap="round"/>
<path d="M0.75 6.00028C0.75 4.91867 0.75 4.37787 0.88784 3.93898C1.18183 3.00289 1.915 2.26972 2.85109 1.97573C3.28998 1.83789 3.83078 1.83789 4.91238 1.83789H10.0876C11.1692 1.83789 11.71 1.83789 12.1489 1.97573C13.085 2.26972 13.8182 3.00289 14.1122 3.93898C14.25 4.37787 14.25 4.91867 14.25 6.00028V6.00028H0.75V6.00028Z" stroke="white" stroke-width="1.5"/>
<path d="M3.75 0.75V3" stroke="white" stroke-width="1.5" stroke-linecap="round"/>
<path d="M11.25 0.75V3" stroke="white" stroke-width="1.5" stroke-linecap="round"/>
</svg>
