<svg width="184" height="184" viewBox="0 0 184 184" fill="none" xmlns="http://www.w3.org/2000/svg">
<mask id="mask0_105_2435" style="mask-type:alpha" maskUnits="userSpaceOnUse" x="0" y="0" width="184" height="184">
<circle cx="92" cy="92" r="92" fill="#C4C4C4"/>
</mask>
<g mask="url(#mask0_105_2435)">
<circle opacity="0.2" cx="92" cy="92" r="92" fill="#C4C4C4"/>
<path opacity="0.4" d="M20.5099 142.793C-12.8143 158.892 -4.45352 191.332 25.4078 211.788C48.4712 227.587 26.7821 249.632 50.7371 262.208C83.4163 279.363 75.1508 220.762 125.376 178.791C175.601 136.82 155.502 225.186 204.899 199.096C254.297 173.006 216.299 83.193 176.039 56.1473C135.78 29.1017 105.575 73.9735 107.959 104.619C110.343 135.265 62.1652 122.669 20.5099 142.793Z" fill="#CECAFF"/>
<rect opacity="0.12" x="33.3555" y="53.3774" width="18.7629" height="18.7629" transform="rotate(15 33.3555 53.3774)" fill="#C4C4C4"/>
<rect opacity="0.12" x="111.5" y="19.2334" width="18.7629" height="18.7629" transform="rotate(-15 111.5 19.2334)" fill="#C4C4C4"/>
<rect opacity="0.12" x="75.7188" y="95.5537" width="18.7629" height="18.7629" transform="rotate(-31.5771 75.7188 95.5537)" fill="#C4C4C4"/>
<rect opacity="0.12" x="20.1465" y="128.491" width="18.7629" height="18.7629" transform="rotate(-15 20.1465 128.491)" fill="#C4C4C4"/>
<circle cx="91.8621" cy="160.149" r="11.4159" transform="rotate(30 91.8621 160.149)" fill="#FF9E27"/>
<rect x="83.3633" y="149.592" width="24.8704" height="5.70797" rx="2.85398" transform="rotate(30 83.3633 149.592)" fill="#FF8C00"/>
<rect x="123.268" y="69.0591" width="13.0468" height="20.3856" rx="6.52339" transform="rotate(30 123.268 69.0591)" fill="#FCBF28"/>
<path d="M128.043 86.8813L130.897 81.9381C132.924 78.428 131.721 73.9396 128.211 71.9131L118.018 89.5675C121.528 91.5941 126.017 90.3914 128.043 86.8813Z" fill="#FFAD09"/>
<path d="M80.3692 90.8606C89.9666 78.1419 107.54 74.5727 121.339 82.5394C135.456 90.6902 141.042 108.252 134.228 123.061L121.485 150.754C119.525 155.012 118.268 159.559 117.763 164.219C117.352 167.999 113.192 170.11 109.899 168.209L50.1362 133.705C47.022 131.907 47.0402 127.405 50.169 125.633C54.7337 123.046 58.7194 119.551 61.8795 115.363L80.3692 90.8606Z" fill="#FFAD09"/>
<path opacity="0.5" d="M121.484 150.754L134.409 122.666C141.121 108.081 135.619 90.7847 121.715 82.7571L79.9935 150.943L109.899 168.209C113.192 170.11 117.352 167.999 117.762 164.219C118.268 159.559 119.525 155.012 121.484 150.754Z" fill="#FF8C00"/>
<rect x="50.2168" y="120.569" width="82.3578" height="11.4159" rx="5.70797" transform="rotate(30 50.2168 120.569)" fill="#FCBF28"/>
<path d="M85.8779 141.158L116.597 158.894C119.327 160.47 120.262 163.961 118.686 166.691C117.11 169.421 113.619 170.356 110.889 168.78L80.17 151.045L85.8779 141.158Z" fill="#FFAD09"/>
<circle cx="158.506" cy="76.9282" r="3.87326" transform="rotate(30 158.506 76.9282)" fill="#FF9C04"/>
<circle cx="61.9755" cy="46.3832" r="2.44627" transform="rotate(30 61.9755 46.3832)" fill="#FF9C04"/>
<path d="M56.7725 61.7397C62.7889 67.7562 62.7889 77.5108 56.7725 83.5272C50.756 77.5108 50.756 67.7562 56.7725 61.7397Z" fill="#FCBF28"/>
<path d="M89.1816 39.4932C93.0817 43.3933 93.0817 49.7166 89.1816 53.6167C85.2815 49.7166 85.2815 43.3933 89.1816 39.4932Z" fill="#FCBF28"/>
<path d="M67.666 72.6338C61.6496 78.6502 51.895 78.6502 45.8785 72.6338C51.895 66.6173 61.6496 66.6173 67.666 72.6338Z" fill="#FCBF28"/>
<path d="M96.2441 46.5552C92.344 50.4553 86.0207 50.4553 82.1206 46.5552C86.0207 42.6551 92.344 42.6551 96.2441 46.5552Z" fill="#FCBF28"/>
</g>
</svg>
