<svg width="18" height="20" viewBox="0 0 18 20" fill="none" xmlns="http://www.w3.org/2000/svg">
<path d="M6.6587 17.0976V17.0976C6.6587 18.278 7.61558 19.2348 8.79595 19.2348V19.2348C9.97632 19.2348 10.9332 18.278 10.9332 17.0976V17.0976" stroke="white" stroke-width="1.5"/>
<path d="M3.24927 5.66187C3.59895 2.86446 5.97695 0.765207 8.79612 0.765207C11.6153 0.765207 13.9933 2.86446 14.343 5.66187L14.9572 10.5757C15.1656 12.243 15.8056 13.8271 16.8138 15.1714C16.8257 15.1873 16.8265 15.1959 16.8268 15.2C16.8273 15.2072 16.8259 15.2189 16.8192 15.2321C16.8126 15.2454 16.8041 15.2535 16.7981 15.2574C16.7946 15.2596 16.7872 15.2642 16.7674 15.2642H0.82487C0.805054 15.2642 0.797647 15.2596 0.794201 15.2574C0.788153 15.2535 0.779644 15.2454 0.773012 15.2321C0.76638 15.2189 0.764994 15.2072 0.765493 15.2C0.765777 15.1959 0.766597 15.1873 0.778486 15.1714C1.78669 13.8271 2.42663 12.243 2.63505 10.5757L3.24927 5.66187Z" stroke="white" stroke-width="1.5"/>
</svg>
