<svg width="40" height="40" viewBox="0 0 40 40" fill="none" xmlns="http://www.w3.org/2000/svg">
<rect width="40" height="40" rx="20" fill="#25233B"/>
<mask id="path-2-inside-1_105_1673" fill="white">
<path fill-rule="evenodd" clip-rule="evenodd" d="M12.2235 16.1024C12.3767 16.0613 12.4532 16.0408 12.4651 16.037C12.7939 15.9311 12.8733 15.7936 12.8006 15.4559C12.798 15.4437 12.7775 15.3671 12.7364 15.214C12.459 14.1787 12.755 13.0741 13.5129 12.3162C13.7922 12.037 14.1949 11.8045 15.0003 11.3395C15.8056 10.8745 16.2083 10.642 16.5898 10.5398C17.6251 10.2624 18.7297 10.5584 19.4876 11.3162C19.5996 11.4282 19.6556 11.4842 19.6646 11.4924C19.9209 11.7247 20.08 11.7247 20.3362 11.4924C20.3453 11.4842 20.4011 11.4284 20.5128 11.3167C21.2707 10.5589 22.3753 10.2629 23.4106 10.5403C23.7921 10.6425 24.1947 10.875 25.0001 11.34C25.8055 11.805 26.2082 12.0375 26.4875 12.3167C27.2453 13.0746 27.5413 14.1792 27.2639 15.2145C27.223 15.3673 27.2025 15.4437 27.1999 15.4557C27.127 15.7937 27.2065 15.9314 27.5356 16.0372C27.5474 16.041 27.6237 16.0614 27.7765 16.1024C28.8117 16.3798 29.6204 17.1884 29.8978 18.2237C30 18.6052 30 19.0702 30 20.0001C30 20.9301 30 21.3951 29.8978 21.7766C29.6204 22.8119 28.8117 23.6205 27.7765 23.8979C27.6239 23.9388 27.5476 23.9592 27.5359 23.963C27.2067 24.0688 27.1271 24.2066 27.2001 24.5446C27.2027 24.5566 27.2232 24.6329 27.2641 24.7855C27.5415 25.8207 27.2455 26.9254 26.4876 27.6832C26.2083 27.9625 25.8056 28.195 25.0003 28.66C24.1949 29.125 23.7922 29.3575 23.4107 29.4597C22.3754 29.7371 21.2708 29.4411 20.5129 28.6832C20.4012 28.5715 20.3453 28.5156 20.3362 28.5073C20.08 28.2752 19.9209 28.2752 19.6647 28.5073C19.6556 28.5156 19.5996 28.5717 19.4875 28.6837C18.7296 29.4416 17.625 29.7376 16.5897 29.4602C16.2082 29.358 15.8055 29.1255 15.0001 28.6605C14.1947 28.1955 13.7921 27.963 13.5128 27.6837C12.7549 26.9259 12.4589 25.8212 12.7363 24.786C12.7773 24.6331 12.7978 24.5566 12.8004 24.5445C12.8732 24.2067 12.7937 24.069 12.4648 23.9632C12.453 23.9594 12.3765 23.9389 12.2235 23.8979C11.1883 23.6205 10.3796 22.8119 10.1022 21.7766C10 21.3951 10 20.9301 10 20.0001C10 19.0702 10 18.6052 10.1022 18.2237C10.3796 17.1884 11.1883 16.3798 12.2235 16.1024Z"/>
</mask>
<path d="M13.5129 12.3162L14.5736 13.3769H14.5736L13.5129 12.3162ZM15.0003 11.3395L15.7503 12.6385V12.6385L15.0003 11.3395ZM16.5898 10.5398L16.978 11.9887H16.978L16.5898 10.5398ZM23.4106 10.5403L23.7988 9.09139V9.09139L23.4106 10.5403ZM25.0001 11.34L25.7501 10.0409V10.0409L25.0001 11.34ZM26.4875 12.3167L27.5481 11.2561V11.2561L26.4875 12.3167ZM29.8978 18.2237L31.3467 17.8355L29.8978 18.2237ZM29.8978 21.7766L31.3467 22.1648L29.8978 21.7766ZM25.0003 28.66L24.2503 27.361H24.2503L25.0003 28.66ZM23.4107 29.4597L23.7989 30.9086H23.7989L23.4107 29.4597ZM16.5897 29.4602L16.2015 30.9091L16.5897 29.4602ZM15.0001 28.6605L15.7501 27.3615L15.7501 27.3614L15.0001 28.6605ZM13.5128 27.6837L12.4521 28.7444L12.4521 28.7444L13.5128 27.6837ZM10.1022 21.7766L8.65333 22.1648L8.65333 22.1648L10.1022 21.7766ZM10.1022 18.2237L8.65333 17.8355H8.65333L10.1022 18.2237ZM12.8004 24.5445L11.3341 24.2285L12.8004 24.5445ZM12.2235 23.8979L12.6118 22.449H12.6118L12.2235 23.8979ZM12.4648 23.9632L12.0053 25.3911L12.4648 23.9632ZM20.5129 28.6832L19.4522 29.7439L19.4522 29.7439L20.5129 28.6832ZM20.3362 28.5073L21.3433 27.3958L20.3362 28.5073ZM19.4875 28.6837L20.5481 29.7444L20.5481 29.7444L19.4875 28.6837ZM19.6647 28.5073L18.6576 27.3958L19.6647 28.5073ZM27.7765 23.8979L27.3882 22.449L27.7765 23.8979ZM27.5359 23.963L27.9947 25.3911L27.5359 23.963ZM27.2641 24.7855L28.7129 24.3972V24.3972L27.2641 24.7855ZM27.2001 24.5446L28.6663 24.2279L27.2001 24.5446ZM12.7364 15.214L11.2876 15.6023H11.2876L12.7364 15.214ZM12.8006 15.4559L14.267 15.1402L12.8006 15.4559ZM12.2235 16.1024L11.8353 14.6535L11.8353 14.6535L12.2235 16.1024ZM12.4651 16.037L12.0052 14.6092L12.4651 16.037ZM27.2639 15.2145L25.815 14.8263V14.8263L27.2639 15.2145ZM27.1999 15.4557L28.6662 15.7721L27.1999 15.4557ZM27.7765 16.1024L28.1647 14.6535H28.1647L27.7765 16.1024ZM27.5356 16.0372L27.0765 17.4652L27.5356 16.0372ZM19.4876 11.3162L18.4269 12.3769L18.4269 12.3769L19.4876 11.3162ZM19.6646 11.4924L18.6573 12.6039L19.6646 11.4924ZM20.5128 11.3167L21.5734 12.3774L21.5734 12.3774L20.5128 11.3167ZM20.3362 11.4924L21.3436 12.6039L20.3362 11.4924ZM12.4522 11.2556C11.3154 12.3924 10.8715 14.0493 11.2876 15.6023L14.1853 14.8258C14.0466 14.3082 14.1946 13.7558 14.5736 13.3769L12.4522 11.2556ZM14.2503 10.0405C13.5285 10.4572 12.9064 10.8015 12.4522 11.2556L14.5736 13.3769C14.678 13.2725 14.8612 13.1518 15.7503 12.6385L14.2503 10.0405ZM16.2016 9.0909C15.5813 9.25712 14.972 9.62375 14.2503 10.0405L15.7503 12.6385C16.6393 12.1253 16.8354 12.0269 16.978 11.9887L16.2016 9.0909ZM20.5483 10.2556C19.4114 9.11878 17.7545 8.6748 16.2016 9.0909L16.978 11.9887C17.4957 11.85 18.048 11.998 18.4269 12.3769L20.5483 10.2556ZM23.7988 9.09139C22.2459 8.67529 20.5889 9.11926 19.4521 10.2561L21.5734 12.3774C21.9524 11.9985 22.5047 11.8505 23.0223 11.9892L23.7988 9.09139ZM25.7501 10.0409C25.0284 9.62424 24.4191 9.25761 23.7988 9.09139L23.0223 11.9892C23.165 12.0274 23.3611 12.1257 24.2501 12.639L25.7501 10.0409ZM27.5481 11.2561C27.094 10.802 26.4719 10.4576 25.7501 10.0409L24.2501 12.639C25.1391 13.1523 25.3224 13.273 25.4268 13.3774L27.5481 11.2561ZM28.7128 15.6027C29.1289 14.0498 28.6849 12.3929 27.5481 11.2561L25.4268 13.3774C25.8058 13.7563 25.9537 14.3086 25.815 14.8263L28.7128 15.6027ZM27.3882 17.5512C27.9059 17.6899 28.3102 18.0943 28.4489 18.6119L31.3467 17.8355C30.9306 16.2825 29.7176 15.0696 28.1647 14.6535L27.3882 17.5512ZM28.4489 18.6119C28.4871 18.7546 28.5 18.9736 28.5 20.0001H31.5C31.5 19.1667 31.5129 18.4558 31.3467 17.8355L28.4489 18.6119ZM28.5 20.0001C28.5 21.0267 28.4871 21.2457 28.4489 21.3884L31.3467 22.1648C31.5129 21.5445 31.5 20.8335 31.5 20.0001H28.5ZM28.4489 21.3884C28.3102 21.906 27.9059 22.3103 27.3882 22.449L28.1647 25.3468C29.7176 24.9307 30.9306 23.7177 31.3467 22.1648L28.4489 21.3884ZM27.5483 28.7439C28.6851 27.6071 29.129 25.9502 28.7129 24.3972L25.8152 25.1737C25.9539 25.6913 25.8059 26.2436 25.4269 26.6226L27.5483 28.7439ZM25.7503 29.959C26.472 29.5423 27.0941 29.198 27.5483 28.7439L25.4269 26.6226C25.3225 26.727 25.1393 26.8477 24.2503 27.361L25.7503 29.959ZM23.7989 30.9086C24.4192 30.7424 25.0285 30.3757 25.7503 29.959L24.2503 27.361C23.3612 27.8742 23.1651 27.9726 23.0225 28.0108L23.7989 30.9086ZM19.4522 29.7439C20.5891 30.8807 22.246 31.3247 23.7989 30.9086L23.0225 28.0108C22.5048 28.1495 21.9525 28.0015 21.5736 27.6226L19.4522 29.7439ZM16.2015 30.9091C17.7544 31.3252 19.4113 30.8812 20.5481 29.7444L18.4268 27.6231C18.0479 28.002 17.4956 28.15 16.9779 28.0113L16.2015 30.9091ZM14.2501 29.9595C14.9719 30.3762 15.5811 30.7429 16.2015 30.9091L16.9779 28.0113C16.8353 27.9731 16.6391 27.8747 15.7501 27.3615L14.2501 29.9595ZM12.4521 28.7444C12.9062 29.1985 13.5284 29.5428 14.2501 29.9595L15.7501 27.3614C14.8611 26.8482 14.6779 26.7275 14.5734 26.6231L12.4521 28.7444ZM11.2874 24.3977C10.8713 25.9506 11.3153 27.6076 12.4521 28.7444L14.5734 26.6231C14.1945 26.2441 14.0465 25.6918 14.1852 25.1742L11.2874 24.3977ZM12.6118 22.449C12.0941 22.3103 11.6898 21.906 11.5511 21.3884L8.65333 22.1648C9.06944 23.7177 10.2824 24.9307 11.8353 25.3468L12.6118 22.449ZM11.5511 21.3884C11.5129 21.2457 11.5 21.0267 11.5 20.0001H8.5C8.5 20.8335 8.48712 21.5445 8.65333 22.1648L11.5511 21.3884ZM11.5 20.0001C11.5 18.9736 11.5129 18.7546 11.5511 18.6119L8.65333 17.8355C8.48712 18.4558 8.5 19.1667 8.5 20.0001H11.5ZM11.5511 18.6119C11.6898 18.0943 12.0941 17.6899 12.6118 17.5512L11.8353 14.6535C10.2824 15.0696 9.06944 16.2825 8.65333 17.8355L11.5511 18.6119ZM14.1852 25.1742C14.2153 25.0621 14.2537 24.9209 14.2667 24.8605L11.3341 24.2285C11.3375 24.2126 11.3403 24.2006 11.3412 24.197C11.3424 24.1919 11.3433 24.1884 11.3436 24.1871C11.3442 24.1847 11.3443 24.1847 11.3433 24.1883C11.3415 24.1955 11.3382 24.2077 11.3331 24.2269C11.323 24.2649 11.3081 24.3206 11.2874 24.3977L14.1852 25.1742ZM11.8353 25.3468C11.9125 25.3675 11.9681 25.3824 12.0062 25.3927C12.0254 25.3978 12.0376 25.4012 12.0447 25.4031C12.0483 25.4041 12.0483 25.4041 12.0459 25.4035C12.0447 25.4031 12.0411 25.4021 12.0361 25.4006C12.0325 25.3995 12.0208 25.3961 12.0053 25.3911L12.9242 22.5353C12.8654 22.5164 12.724 22.4791 12.6118 22.449L11.8353 25.3468ZM14.2667 24.8605C14.3203 24.6117 14.4269 24.0138 14.0823 23.4169C13.7376 22.8199 13.1665 22.6132 12.9242 22.5353L12.0053 25.3911C12.092 25.419 11.7251 25.3341 11.4842 24.9169C11.2433 24.4996 11.3532 24.1394 11.3341 24.2285L14.2667 24.8605ZM21.5736 27.6226C21.4915 27.5405 21.3888 27.437 21.3433 27.3958L19.329 29.6189C19.317 29.6081 19.3081 29.5996 19.3054 29.5971C19.3017 29.5935 19.299 29.591 19.2981 29.5901C19.2964 29.5884 19.2963 29.5883 19.2991 29.591C19.3043 29.5962 19.3133 29.6051 19.3273 29.6191C19.3552 29.6469 19.3959 29.6875 19.4522 29.7439L21.5736 27.6226ZM20.5481 29.7444C20.6047 29.6879 20.6455 29.6471 20.6734 29.6192C20.6875 29.6052 20.6965 29.5962 20.7018 29.591C20.7045 29.5883 20.7045 29.5884 20.7028 29.5901C20.7019 29.5909 20.6992 29.5935 20.6955 29.597C20.6928 29.5996 20.6839 29.608 20.6719 29.6189L18.6576 27.3958C18.612 27.437 18.5092 27.5407 18.4268 27.6231L20.5481 29.7444ZM21.3433 27.3958C21.1546 27.2248 20.69 26.8333 20.0004 26.8333C19.3109 26.8333 18.8463 27.2248 18.6576 27.3958L20.6719 29.6189C20.7394 29.5578 20.4824 29.8333 20.0004 29.8333C19.5185 29.8333 19.2615 29.5578 19.329 29.6189L21.3433 27.3958ZM27.3882 22.449C27.2761 22.4791 27.1354 22.5162 27.0771 22.5349L27.9947 25.3911C27.9793 25.396 27.9676 25.3995 27.9641 25.4006C27.9591 25.402 27.9556 25.403 27.9544 25.4034C27.9521 25.404 27.9521 25.404 27.9558 25.403C27.9629 25.401 27.9751 25.3977 27.9942 25.3925C28.0322 25.3823 28.0877 25.3674 28.1647 25.3468L27.3882 22.449ZM28.7129 24.3972C28.6923 24.3203 28.6774 24.2647 28.6673 24.2267C28.6622 24.2075 28.659 24.1953 28.6571 24.1882C28.6562 24.1845 28.6562 24.1845 28.6568 24.1869C28.6571 24.1881 28.658 24.1916 28.6592 24.1966C28.66 24.2002 28.6629 24.2121 28.6663 24.2279L25.7339 24.8613C25.7469 24.9211 25.7851 25.0616 25.8152 25.1737L28.7129 24.3972ZM27.0771 22.5349C26.8345 22.6128 26.263 22.8194 25.9181 23.4167C25.5733 24.014 25.6802 24.6123 25.7339 24.8613L28.6663 24.2279C28.6471 24.1389 28.7572 24.4993 28.5162 24.9167C28.2752 25.3341 27.9081 25.4189 27.9947 25.3911L27.0771 22.5349ZM11.2876 15.6023C11.3083 15.6795 11.3232 15.7352 11.3333 15.7733C11.3384 15.7925 11.3417 15.8048 11.3435 15.8119C11.3445 15.8155 11.3444 15.8154 11.3438 15.813C11.3435 15.8118 11.3426 15.8082 11.3414 15.8031C11.3405 15.7994 11.3376 15.7874 11.3342 15.7715L14.267 15.1402C14.2539 15.0795 14.2154 14.9379 14.1853 14.8258L11.2876 15.6023ZM12.6118 17.5512C12.7239 17.5212 12.8658 17.4838 12.9249 17.4648L12.0052 14.6092C12.0207 14.6042 12.0325 14.6007 12.0362 14.5997C12.0412 14.5982 12.0448 14.5971 12.046 14.5968C12.0484 14.5961 12.0485 14.5961 12.0448 14.5971C12.0378 14.5991 12.0256 14.6024 12.0063 14.6076C11.9683 14.6178 11.9126 14.6328 11.8353 14.6535L12.6118 17.5512ZM11.3342 15.7715C11.3534 15.8606 11.2436 15.5004 11.4844 15.0834C11.7252 14.6663 12.0919 14.5813 12.0052 14.6092L12.9249 17.4648C13.167 17.3868 13.7379 17.1801 14.0824 16.5834C14.427 15.9866 14.3205 15.3889 14.267 15.1402L11.3342 15.7715ZM25.815 14.8263C25.785 14.9385 25.7466 15.0793 25.7337 15.1394L28.6662 15.7721C28.6628 15.788 28.6599 15.7999 28.659 15.8035C28.6578 15.8085 28.6569 15.8121 28.6566 15.8133C28.656 15.8157 28.656 15.8157 28.657 15.812C28.6588 15.8049 28.662 15.7927 28.6672 15.7735C28.6773 15.7354 28.6922 15.6798 28.7128 15.6027L25.815 14.8263ZM28.1647 14.6535C28.0877 14.6328 28.032 14.6179 27.9941 14.6077C27.9749 14.6025 27.9627 14.5992 27.9556 14.5972C27.9519 14.5962 27.952 14.5962 27.9543 14.5969C27.9555 14.5972 27.9591 14.5982 27.964 14.5997C27.9676 14.6008 27.9793 14.6042 27.9948 14.6092L27.0765 17.4652C27.135 17.484 27.2761 17.5212 27.3882 17.5512L28.1647 14.6535ZM25.7337 15.1394C25.68 15.3883 25.5732 15.9864 25.918 16.5835C26.2627 17.1806 26.8341 17.3873 27.0765 17.4652L27.9948 14.6092C27.9081 14.5813 28.2751 14.6662 28.5161 15.0835C28.757 15.5008 28.647 15.8611 28.6662 15.7721L25.7337 15.1394ZM18.4269 12.3769C18.5093 12.4593 18.6119 12.5627 18.6573 12.6039L20.672 10.381C20.684 10.3919 20.6929 10.4004 20.6956 10.4029C20.6993 10.4064 20.7019 10.409 20.7028 10.4098C20.7045 10.4115 20.7045 10.4115 20.7018 10.4088C20.6965 10.4036 20.6875 10.3947 20.6734 10.3806C20.6455 10.3528 20.6047 10.3121 20.5483 10.2556L18.4269 12.3769ZM19.4521 10.2561C19.3958 10.3124 19.3552 10.353 19.3273 10.3808C19.3133 10.3948 19.3043 10.4037 19.2991 10.4088C19.2963 10.4115 19.2964 10.4115 19.2981 10.4098C19.299 10.4089 19.3016 10.4064 19.3053 10.4029C19.308 10.4003 19.3169 10.3919 19.3289 10.381L21.3436 12.6039C21.3889 12.5627 21.4914 12.4594 21.5734 12.3774L19.4521 10.2561ZM18.6573 12.6039C18.846 12.7749 19.3107 13.1666 20.0004 13.1666C20.6901 13.1666 21.1548 12.7749 21.3436 12.6039L19.3289 10.381C19.2614 10.4422 19.5184 10.1666 20.0004 10.1666C20.4825 10.1666 20.7395 10.4422 20.672 10.381L18.6573 12.6039Z" fill="white" mask="url(#path-2-inside-1_105_1673)"/>
<circle cx="20" cy="20" r="3.25" stroke="white" stroke-width="1.5"/>
</svg>
