<svg width="11" height="11" viewBox="0 0 11 11" fill="none" xmlns="http://www.w3.org/2000/svg">
<path d="M10.505 4.1713C11.2802 3.30643 10.5026 1.95348 9.36948 2.19545L7.84953 2.52001C7.3427 2.62823 6.82468 2.397 6.56614 1.94714L5.7921 0.600313C5.21333 -0.406762 3.68682 -0.0788549 3.56573 1.07856L3.40452 2.61941C3.35032 3.1375 2.96942 3.56207 2.46154 3.67052L0.949478 3.9934C-0.18423 4.23548 -0.350077 5.79111 0.707398 6.26409L2.12822 6.89958C2.60036 7.11076 2.88314 7.6028 2.82912 8.11916L2.66655 9.67302C2.54555 10.8295 3.96952 11.463 4.74507 10.5978L5.77944 9.4437C6.12687 9.05606 6.68333 8.93697 7.15706 9.14885L8.56598 9.77903C9.62429 10.2524 10.6702 9.08827 10.0914 8.0812L9.31741 6.73437C9.05887 6.28451 9.11854 5.71821 9.46525 5.33138L10.505 4.1713Z" fill="#FFCB49"/>
</svg>
