<svg width="184" height="184" viewBox="0 0 184 184" fill="none" xmlns="http://www.w3.org/2000/svg">
<mask id="mask0_105_1138" style="mask-type:alpha" maskUnits="userSpaceOnUse" x="0" y="0" width="184" height="184">
<circle cx="92.0001" cy="92.0001" r="92.0001" fill="#C4C4C4"/>
</mask>
<g mask="url(#mask0_105_1138)">
<circle opacity="0.2" cx="92.0001" cy="92.0001" r="92.0001" fill="#C4C4C4"/>
<path opacity="0.4" d="M20.5098 142.792C-12.8144 158.891 -4.45364 191.332 25.4077 211.787C48.4712 227.586 26.782 249.632 50.737 262.207C83.4163 279.362 75.1508 220.762 125.376 178.791C175.601 136.82 155.502 225.186 204.899 199.096C254.297 173.006 216.299 83.1924 176.039 56.1467C135.78 29.101 105.575 73.9729 107.959 104.619C110.343 135.264 62.1652 122.669 20.5098 142.792Z" fill="#CECAFF"/>
<rect opacity="0.12" x="35.6848" y="34.9521" width="18.7621" height="18.7621" transform="rotate(15 35.6848 34.9521)" fill="#C4C4C4"/>
<rect opacity="0.12" x="125.891" y="39.8078" width="18.7621" height="18.7621" transform="rotate(-15 125.891 39.8078)" fill="#C4C4C4"/>
<rect opacity="0.12" x="75.7192" y="95.5535" width="18.7621" height="18.7621" transform="rotate(-31.5771 75.7192 95.5535)" fill="#C4C4C4"/>
<rect opacity="0.12" x="20.1466" y="128.491" width="18.7621" height="18.7621" transform="rotate(-15 20.1466 128.491)" fill="#C4C4C4"/>
<g filter="url(#filter0_d_105_1138)">
<path d="M42.9504 74.0381V70.6328C42.9504 65.8358 46.8391 61.9471 51.6361 61.9471H74.2189C77.9722 61.9471 81.301 64.3581 82.4714 67.9243L82.5163 68.0609C83.6867 71.6271 87.0155 74.0381 90.7688 74.0381H133.823C138.62 74.0381 142.508 77.9268 142.508 82.7237V153.334C142.508 158.131 138.62 162.019 133.823 162.019H51.6361C46.8391 162.019 42.9504 158.131 42.9504 153.334V74.0381Z" fill="#FFAD09"/>
<path d="M142.508 153.334V82.7239C142.508 77.9269 138.619 74.0382 133.823 74.0382H91.7788L92.6364 153.428C92.6878 158.188 96.5612 162.02 101.322 162.02H133.822C138.619 162.02 142.508 158.131 142.508 153.334Z" fill="#FF8C00"/>
<rect x="53.7552" y="85.6142" width="77.6912" height="64.8284" rx="4.34282" fill="white"/>
<path d="M91.7827 85.6355H126.96C129.358 85.6355 131.303 87.5798 131.303 89.9783V146.001C131.303 148.399 129.358 150.344 126.96 150.344H96.1256C93.7271 150.344 91.7827 148.399 91.7827 146.001V85.6355Z" fill="#F0F0F0"/>
<path d="M42.7092 97.3614H142.595V153.818C142.595 158.615 138.706 162.504 133.909 162.504H51.3949C46.5979 162.504 42.7092 158.615 42.7092 153.818V97.3614Z" fill="#FFCB49"/>
<path d="M92.6519 97.3614H142.595V153.818C142.595 158.615 138.706 162.504 133.909 162.504H92.6519V97.3614Z" fill="#FFBB33"/>
<path d="M103.49 124.168L92.4067 135.25M92.4067 135.25L81.3238 124.168M92.4067 135.25V113.776" stroke="#FF8C00" stroke-width="4.34282" stroke-linecap="round"/>
<path d="M105.025 122.632C105.873 123.48 105.873 124.855 105.025 125.703L92.4071 138.321L92.4071 111.605C93.6063 111.605 94.5784 112.577 94.5784 113.776L94.5784 130.008L101.955 122.632C102.803 121.784 104.177 121.784 105.025 122.632Z" fill="#E87F00"/>
<path d="M76.3686 137.871V140.972C76.3686 143.37 78.3129 145.314 80.7114 145.314H103.288C105.686 145.314 107.631 143.37 107.631 140.972V137.871" stroke="#FF8C00" stroke-width="4.34282" stroke-linecap="round"/>
<path d="M103.288 143.143C104.487 143.143 105.459 142.171 105.459 140.972V137.871C105.459 136.672 106.431 135.7 107.63 135.7C108.829 135.7 109.802 136.672 109.802 137.871V140.972C109.802 144.569 106.885 147.486 103.288 147.486H91.9995V143.143H103.288Z" fill="#E87F00"/>
</g>
</g>
<defs>
<filter id="filter0_d_105_1138" x="18.7091" y="58.9471" width="147.886" height="148.557" filterUnits="userSpaceOnUse" color-interpolation-filters="sRGB">
<feFlood flood-opacity="0" result="BackgroundImageFix"/>
<feColorMatrix in="SourceAlpha" type="matrix" values="0 0 0 0 0 0 0 0 0 0 0 0 0 0 0 0 0 0 127 0" result="hardAlpha"/>
<feOffset dy="21"/>
<feGaussianBlur stdDeviation="12"/>
<feComposite in2="hardAlpha" operator="out"/>
<feColorMatrix type="matrix" values="0 0 0 0 0.129167 0 0 0 0 0.0818372 0 0 0 0 0.0242188 0 0 0 0.2 0"/>
<feBlend mode="normal" in2="BackgroundImageFix" result="effect1_dropShadow_105_1138"/>
<feBlend mode="normal" in="SourceGraphic" in2="effect1_dropShadow_105_1138" result="shape"/>
</filter>
</defs>
</svg>
