<svg width="84" height="84" viewBox="0 0 84 84" fill="none" xmlns="http://www.w3.org/2000/svg">
<circle cx="42" cy="42" r="42" fill="#FCBF28"/>
<path d="M42 84C65.196 84 84 65.196 84 42C84 18.804 65.196 0 42 0V84Z" fill="#FFAD09"/>
<path fill-rule="evenodd" clip-rule="evenodd" d="M47.7785 25.073C45.0486 19.9342 39.6412 16.4348 33.4166 16.4348C24.4408 16.4348 17.1644 23.7111 17.1644 32.687C17.1644 33.9068 17.2988 35.0953 17.5536 36.2383C12.4828 37.6613 8.76465 42.3182 8.76465 47.8435C8.76465 54.4998 14.1606 59.8957 20.8168 59.8957H62.8168C69.4731 59.8957 74.869 54.4998 74.869 47.8435C74.869 41.3077 69.6665 35.9869 63.1767 35.7966C62.9865 29.5086 57.8293 24.4696 51.4952 24.4696C50.1959 24.4696 48.9461 24.6817 47.7785 25.073Z" fill="white"/>
<path d="M74.8696 47.8435C74.8696 54.4997 69.4736 59.8957 62.8174 59.8957H41.8174L42 18.8832C44.43 20.3973 46.4311 22.5352 47.7793 25.0729C48.9467 24.6816 50.1964 24.4696 51.4956 24.4696C57.8298 24.4696 62.9869 29.5086 63.1772 35.7966C69.667 35.9869 74.8696 41.3076 74.8696 47.8435Z" fill="#FFF8EB"/>
<path fill-rule="evenodd" clip-rule="evenodd" d="M46.1817 33.9651H37.7817V44.1912H33.5996L41.9812 54.0521L50.3629 44.1912H46.1817V33.9651Z" fill="#E1DEFF"/>
<path d="M41.9814 54.0521L50.3631 44.1912H46.1814V33.9652H41.9814V54.0521Z" fill="#ABA4FF"/>
</svg>
