<svg width="21" height="20" viewBox="0 0 21 20" fill="none" xmlns="http://www.w3.org/2000/svg">
<path d="M15.296 10C15.296 12.6638 14.7214 15.0382 13.829 16.7194C12.9191 18.4338 11.7903 19.25 10.7384 19.25C9.68638 19.25 8.55765 18.4338 7.64772 16.7194C6.75535 15.0382 6.18066 12.6638 6.18066 10C6.18066 7.33622 6.75535 4.96182 7.64772 3.28055C8.55765 1.56619 9.68638 0.75 10.7384 0.75C11.7903 0.75 12.9191 1.56619 13.829 3.28055C14.7214 4.96182 15.296 7.33622 15.296 10Z" stroke="white" stroke-width="1.5"/>
<path d="M1.18457 10H20.2923" stroke="white" stroke-width="1.5"/>
<rect x="0.75" y="0.75" width="19.5" height="18.5" rx="9.25" stroke="white" stroke-width="1.5"/>
</svg>
